<?xml version="1.0" encoding="UTF-8"?>
<svg version="1.1" xmlns="http://www.w3.org/2000/svg" width="1581" height="1198">
<path d="M0 0 C2.41796875 0.3046875 2.41796875 0.3046875 5 1 C6.3125 4.125 6.3125 4.125 7.01953125 6.34765625 C8.22550244 9.61002453 9.82438986 12.51377323 11.5 15.5625 C15.35104326 22.63136726 18.84692812 29.83978853 22.29443359 37.11254883 C26.67847048 46.35431208 31.14683608 55.55361844 35.625 64.75 C45.50110243 85.03852335 45.50110243 85.03852335 49.96142578 94.61816406 C52.1518444 99.29829818 54.45227815 103.92069053 56.76953125 108.5390625 C60.44338509 115.86174501 64.04292537 123.21799913 67.61123657 130.59259033 C69.4323648 134.35589352 71.25699229 138.11749834 73.08203125 141.87890625 C73.47136337 142.68132751 73.8606955 143.48374878 74.26182556 144.31048584 C78.77847538 153.61287995 83.32748525 162.89942691 87.8742981 172.18710327 C94.46921257 185.6589097 101.05669341 199.13252044 107.52124023 212.66748047 C112.08926445 222.21932061 116.73295234 231.73398914 121.375 241.25 C127.54237156 253.89352633 133.68901058 266.5463584 139.796875 279.21875 C145.0173887 290.04648211 150.26830446 300.85932205 155.52368164 311.67016602 C159.13985978 319.10944983 162.75244825 326.550427 166.35546875 333.99609375 C167.06916568 335.47038123 167.78287002 336.94466513 168.49658203 338.41894531 C169.50872427 340.50975833 170.52056517 342.60071331 171.53118896 344.69226074 C175.35068345 352.59683303 179.22507741 360.47051747 183.16218567 368.31719971 C185.92301808 373.8269343 188.60290431 379.3722205 191.25 384.9375 C196.76927751 396.48981755 202.37933948 407.99677227 208 419.5 C213.84562056 431.46520209 219.67195125 443.43784018 225.4140625 455.453125 C230.06014457 465.15942459 234.78140975 474.82881526 239.5 484.5 C245.15921513 496.09924514 250.79650502 507.7075893 256.36328125 519.3515625 C261.02748318 529.09113568 265.76493225 538.79475276 270.5 548.5 C276.20641386 560.19650012 281.89200709 571.90150581 287.50830078 583.64160156 C292.48327635 594.03148145 297.52449859 604.38899599 302.56274414 614.74829102 C306.94975976 623.77009675 311.31894488 632.80023376 315.67193604 641.83850098 C319.69172739 650.18443747 323.72815808 658.51826611 327.90258789 666.78808594 C332.11673922 675.17047566 336.15286135 683.64054239 340.22436523 692.09280396 C340.53188721 692.73120209 340.83940918 693.36960022 341.15625 694.02734375 C341.46828369 694.67516815 341.78031738 695.32299255 342.10180664 695.990448 C345.38515265 702.80439632 348.68597924 709.60983781 351.98809814 716.41470337 C360.25255045 733.44583585 368.48452367 750.49248679 376.70898438 767.54296875 C383.79764889 782.23760054 390.8995483 796.92564794 398.02096558 811.60443115 C402.67090952 821.18929631 407.30983947 830.77935112 411.9375 840.375 C417.06639905 851.00826225 422.21547564 861.63156876 427.375 872.25 C428.08586876 873.71337276 428.7967249 875.17675166 429.50756836 876.64013672 C432.82038388 883.45945154 436.13485139 890.27795367 439.45352173 897.09442139 C440.94626922 900.16134112 442.43754582 903.22897459 443.92852783 906.29675293 C444.63809558 907.75582309 445.34833237 909.21456809 446.05926514 910.67297363 C447.0411899 912.68742041 448.02085017 914.70295331 449 916.71875 C449.8353125 918.43481445 449.8353125 918.43481445 450.6875 920.18554688 C453.11497969 925.39090139 453.99651104 930.37029493 452.45977783 935.9677124 C451.67989262 938.03330354 450.81907745 940.04078156 449.9140625 942.0546875 C449.58621765 942.81573792 449.2583728 943.57678833 448.92059326 944.36090088 C447.8353946 946.87162753 446.73016424 949.37300552 445.625 951.875 C444.84700666 953.66586889 444.07050605 955.4573869 443.29541016 957.24951172 C441.67713031 960.98643853 440.0514809 964.72002423 438.41992188 968.45117188 C435.05868445 976.14556273 431.7608422 983.86692584 428.46044922 991.58755493 C427.35937428 994.16152811 426.25620558 996.7345939 425.15234375 999.30737305 C415.52692498 1021.74219561 405.97555855 1044.20862304 396.41644287 1066.67175293 C394.58072405 1070.98518196 392.74447345 1075.29838449 390.90818787 1079.61157227 C382.65376792 1099.00026077 374.40437787 1118.391049 366.17822266 1137.79174805 C361.39516519 1149.07184381 356.60471364 1160.34879133 351.8125 1171.625 C351.44170319 1172.49760468 351.07090637 1173.37020935 350.68887329 1174.26925659 C349.6325477 1176.755077 348.57606743 1179.2408316 347.51953125 1181.7265625 C347.20765869 1182.46049728 346.89578613 1183.19443207 346.57446289 1183.9506073 C344.72391457 1188.30369051 342.86529652 1192.65321516 341 1197 C340.01 1197 339.02 1197 338 1197 C330.33573021 1181.30684809 322.68555676 1165.61183839 315.375 1149.75 C310.96552489 1140.18371588 306.46692511 1130.66710555 301.875 1121.1875 C301.57846527 1120.57524567 301.28193054 1119.96299133 300.97640991 1119.33218384 C299.52190672 1116.32984647 298.06650866 1113.32794433 296.61083984 1110.32617188 C288.88315294 1094.36951738 281.31527452 1078.33689688 273.75073242 1062.30249023 C268.8853221 1051.98960122 264.01022258 1041.68136211 259.1265564 1031.37710571 C256.12431121 1025.04217725 253.12363069 1018.70650731 250.1229248 1012.37084961 C249.37306226 1010.78765248 248.62314345 1009.20448199 247.87316895 1007.62133789 C245.28851939 1002.16513568 242.70563887 996.70810034 240.125 991.25 C239.77108185 990.50157837 239.4171637 989.75315674 239.05252075 988.98205566 C233.99983793 978.29225038 228.99827738 967.5808418 224.10400391 956.81738281 C221.58027885 951.29810171 218.94407549 945.84928187 216.21484375 940.4296875 C211.70797924 931.4788708 207.40992216 922.43367679 203.125 913.375 C202.29530913 911.62411837 201.46547203 909.87330603 200.63549805 908.12255859 C198.92874522 904.52160431 197.22298868 900.92018071 195.51806641 897.31835938 C193.12257356 892.25794832 190.72375263 887.19912084 188.32421875 882.140625 C181.11326807 866.93630321 173.91729215 851.72495556 166.75 836.5 C166.42270905 835.80483276 166.09541809 835.10966553 165.75820923 834.39343262 C162.21300325 826.86103866 158.68048115 819.32295425 155.171875 811.7734375 C154.8604657 811.10391052 154.5490564 810.43438354 154.22821045 809.74456787 C152.77117431 806.61169642 151.31636118 803.47786595 149.86621094 800.34179688 C147.04016446 794.25787426 144.13410232 788.22521691 141.1171875 782.234375 C136.81023718 773.68115199 132.70790094 765.03691092 128.625 756.375 C127.84206534 754.71752229 127.0589391 753.06013507 126.27563477 751.40283203 C124.65488044 747.97332057 123.03493535 744.54342862 121.41552734 741.11328125 C119.08968926 736.18816938 116.75871587 731.26550373 114.42578125 726.34375 C113.86851349 725.16807968 113.86851349 725.16807968 113.29998779 723.96865845 C112.5526044 722.39196187 111.80520861 720.81527118 111.05780029 719.23858643 C105.21279464 706.90691418 99.37761262 694.57063114 93.5524292 682.22958374 C90.36923193 675.48594256 87.18474867 668.74290863 84 662 C83.62877014 661.21393372 83.25754028 660.42786743 82.87506104 659.61798096 C80.18951762 653.93188489 77.50212596 648.24666613 74.8125 642.5625 C74.24579086 641.36478973 74.24579086 641.36478973 73.66763306 640.1428833 C68.16313073 628.51460182 62.5902351 616.92150348 56.97583008 605.34594727 C52.51117489 596.11674782 48.18778098 586.82645244 43.89331055 577.51708984 C40.01670094 569.13450133 36.03449751 560.80725165 32 552.5 C27.36607221 542.95803468 22.8227367 533.38075239 18.375 523.75 C14.0597479 514.4079945 9.69520001 505.09327548 5.25 495.8125 C4.73614746 494.73645508 4.22229492 493.66041016 3.69287109 492.55175781 C3.22187988 491.57174805 2.75088867 490.59173828 2.265625 489.58203125 C1.85086914 488.71811768 1.43611328 487.8542041 1.00878906 486.96411133 C0.15253256 485.05055397 0.15253256 485.05055397 -1 484 C-9.48805271 502.43804989 -17.96262458 520.8816209 -26.34146118 539.36959839 C-31.20265925 550.09222162 -36.12932657 560.78354635 -41.07678223 571.46661377 C-46.96728561 584.18626437 -52.82115217 596.91235319 -58.38964844 609.77734375 C-62.83214069 620.02404053 -67.62842166 630.10405468 -72.40234375 640.19921875 C-79.21040064 654.60033873 -85.86620333 669.05801151 -92.3125 683.625 C-92.65013367 684.38793365 -92.98776733 685.15086731 -93.33563232 685.93692017 C-94.65470133 688.91850863 -95.97330069 691.90030423 -97.29129028 694.88237 C-100.02219069 701.05844118 -102.77720359 707.22324279 -105.5625 713.375 C-105.91932861 714.1685791 -106.27615723 714.9621582 -106.64379883 715.77978516 C-108.76080566 720.44006166 -111.00985945 725.01636099 -113.32421875 729.58203125 C-116.89175029 736.6469002 -120.10635992 743.84644845 -123.27883911 751.09555054 C-129.53367994 765.37399418 -135.9841767 779.55548285 -142.5625 793.6875 C-144.17735619 797.15742522 -145.79208162 800.62741101 -147.40625 804.09765625 C-147.79839188 804.94069809 -148.19053375 805.78373993 -148.59455872 806.65232849 C-152.29727072 814.62213157 -155.93805369 822.61936562 -159.5625 830.625 C-164.98893383 842.60796912 -170.47793515 854.56080194 -176 866.5 C-181.84923271 879.14716492 -187.65830617 891.81116124 -193.40774536 904.5039978 C-197.03169307 912.50261753 -200.67966534 920.48929889 -204.37109375 928.45703125 C-204.74429749 929.26262985 -205.11750122 930.06822845 -205.50201416 930.89823914 C-206.2638642 932.54249505 -207.02574591 934.18673629 -207.78765869 935.83096313 C-208.35683014 937.05932388 -208.35683014 937.05932388 -208.9375 938.3125 C-209.31662537 939.13068207 -209.69575073 939.94886414 -210.08636475 940.7918396 C-215.54588691 952.58334468 -220.88134249 964.42357537 -226.125 976.3125 C-231.60177861 988.72871948 -237.25629968 1001.04613432 -243.06793213 1013.309021 C-247.96663832 1023.64636137 -252.78109719 1034.0168032 -257.5 1044.4375 C-257.8047525 1045.11041077 -258.109505 1045.78332153 -258.42349243 1046.47662354 C-259.6612211 1049.21026995 -260.8986272 1051.94406192 -262.13542175 1054.6781311 C-265.81844265 1062.81622554 -269.53398468 1070.93943207 -273.25 1079.0625 C-273.5898291 1079.80555389 -273.9296582 1080.54860779 -274.27978516 1081.31417847 C-278.77700939 1091.14755497 -283.2803628 1100.97811296 -287.78710938 1110.80712891 C-297.30397373 1131.56640429 -306.79738783 1152.33638482 -316.25 1173.125 C-316.56432983 1173.816008 -316.87865967 1174.50701599 -317.20251465 1175.21896362 C-320.49859792 1182.46602074 -323.78132808 1189.71815314 -327 1197 C-327.99 1197 -328.98 1197 -330 1197 C-338.19411254 1180.22195639 -346.32219467 1163.424269 -354.13354492 1146.46386719 C-358.15450127 1137.75848742 -362.30392649 1129.12174903 -366.5 1120.5 C-371.73791055 1109.73401528 -376.85917297 1098.92258635 -381.875 1088.05078125 C-386.51712757 1078.00220486 -391.25174034 1067.99880208 -396 1058 C-401.29200946 1046.85252028 -406.56291029 1035.69674844 -411.75 1024.5 C-412.26651123 1023.38520264 -412.78302246 1022.27040527 -413.31518555 1021.12182617 C-414.87737481 1017.74815431 -416.43874612 1014.37410482 -418 1011 C-426.03148641 993.64392228 -434.18765411 976.35849976 -442.58325195 959.17504883 C-455.82255754 932.0590365 -455.82255754 932.0590365 -453.26889896 923.56947708 C-450.89569898 917.08041421 -448.16210852 910.91282555 -445.03881836 904.75292969 C-444.55847137 903.79340393 -444.07812439 902.83387817 -443.58322144 901.84527588 C-442.00767116 898.701309 -440.42374028 895.56164415 -438.83984375 892.421875 C-437.7278914 890.20612619 -436.61653851 887.99007645 -435.50575256 885.77374268 C-432.58395835 879.94722011 -429.65533736 874.12415794 -426.72485352 868.30200195 C-422.05936357 859.03028864 -417.4038476 849.75356631 -412.74917793 840.47641754 C-411.14155002 837.27484737 -409.5307488 834.07489104 -407.91941833 830.87518311 C-401.94080659 818.98545103 -396.11201853 807.03442314 -390.39479065 795.01690674 C-387.68684045 789.32961354 -384.90127539 783.68573277 -382.0625 778.0625 C-381.32592163 776.59502319 -381.32592163 776.59502319 -380.57446289 775.09790039 C-378.54601714 771.05681329 -376.51257948 767.01824555 -374.47949219 762.97949219 C-368.48524597 751.06424135 -362.58628133 739.1140544 -356.85575867 727.06956482 C-353.39786187 719.808391 -349.84527154 712.60253543 -346.22125244 705.42315674 C-341.98699675 697.02172812 -337.78315496 688.60490306 -333.5704174 680.19266319 C-331.97486765 677.00672236 -330.37855261 673.82116967 -328.78051758 670.63647461 C-322.02704205 657.17626204 -315.32963832 643.69642133 -308.86882019 630.09239197 C-304.78066847 621.49730458 -300.53481816 612.98581538 -296.25228882 604.48626709 C-290.02966554 592.13200564 -283.85833007 579.76183588 -277.94921875 567.25390625 C-273.93591438 558.78834235 -269.72825277 550.42268921 -265.52111816 542.05249023 C-260.95199963 532.95780678 -256.49051406 523.81923627 -252.1328125 514.62109375 C-248.23460371 506.42220623 -244.1722262 498.30855129 -240.09396362 490.19818115 C-236.14351719 482.33788376 -232.26785119 474.44938338 -228.5 466.5 C-224.15632632 457.33575079 -219.65013816 448.25895401 -215.09423828 439.19873047 C-211.14370041 431.33824977 -207.26793893 423.44956848 -203.5 415.5 C-199.44418188 406.94306622 -195.25405297 398.45999063 -191 390 C-186.80870944 381.66470971 -182.67886375 373.30797281 -178.6875 364.875 C-174.09633555 355.17945936 -169.31483808 345.58566676 -164.5 336 C-159.81059321 326.66388207 -155.14803482 317.32335331 -150.6875 307.875 C-145.62845963 297.16456327 -140.31322519 286.58578701 -135 276 C-127.18248286 260.43867364 -127.18248286 260.43867364 -119.625 244.75 C-110.12739697 224.60625575 -99.93521326 204.78522432 -89.93334961 184.88867188 C-84.68560205 174.43695349 -79.55231387 163.9301488 -74.42346191 153.41967773 C-66.73878541 137.67407671 -59.04070937 121.93708851 -51.13256836 106.30224609 C-47.61743099 99.32825685 -44.2221277 92.30428102 -40.86328125 85.25390625 C-36.89869617 76.93276205 -32.88060352 68.64020506 -28.80859375 60.37109375 C-28.28635223 59.30996368 -27.76411072 58.24883362 -27.2260437 57.1555481 C-25.09674586 52.83116604 -22.96602989 48.50749386 -20.83129883 44.18579102 C-13.61694516 29.57356547 -6.63747901 14.88383513 0 0 Z " fill="#00A0DD" transform="translate(792,0)"/>
<path d="M0 0 C0.96042353 0.00149235 1.92084707 0.00298469 2.91037434 0.00452226 C4.49644631 0.01472795 4.49644631 0.01472795 6.11456013 0.02513981 C7.79674506 0.0299835 7.79674506 0.0299835 9.51291353 0.03492504 C13.29018188 0.04703868 17.0673789 0.06640356 20.84461689 0.08570194 C23.54452912 0.09640281 26.24444601 0.10557933 28.94436359 0.11481571 C34.7671159 0.13553604 40.58984324 0.15996395 46.41257 0.18689632 C54.83129807 0.22583087 63.25004093 0.25919521 71.66879789 0.29119159 C85.32703116 0.3432528 98.98524186 0.39983098 112.64344501 0.4592371 C125.9126418 0.51694159 139.18184466 0.57252663 152.4510622 0.62525272 C153.26871082 0.62850244 154.08635944 0.63175216 154.92878529 0.63510036 C159.03060877 0.65138982 163.13243242 0.66763753 167.23425615 0.68386447 C201.27343114 0.81857856 235.31257202 0.96061791 269.35169697 1.10743046 C268.70717554 5.19409182 267.85769173 8.86057041 266.42835712 12.74659061 C266.02857655 13.84153339 265.62879597 14.93647617 265.21690083 16.06459904 C264.56046085 17.83763653 264.56046085 17.83763653 263.89075947 19.64649296 C263.42798115 20.90811661 262.96568185 22.16991605 262.5038271 23.43187809 C261.25945698 26.82808648 260.00874041 30.22192562 258.75689411 33.6153841 C257.44769454 37.16786595 256.14453387 40.72256093 254.84095478 44.27710819 C252.97667575 49.35906043 251.11065293 54.44036537 249.24221516 59.5207901 C244.90668839 71.3095869 240.59800355 83.10812099 236.29230976 94.9078455 C230.14871982 111.74028041 223.99171898 128.56780875 217.81654072 145.38868046 C216.09636021 150.0747131 214.38087318 154.76243425 212.66810322 159.45118046 C208.87972962 169.81659742 205.08532114 180.17902665 201.20325947 190.50977421 C200.93865421 191.21398502 200.67404896 191.91819584 200.40142536 192.64374638 C199.13290171 196.01745319 197.86163848 199.39009657 196.58631611 202.76123905 C193.90762308 209.86578026 191.31771851 216.99352346 188.80604267 224.15873051 C185.14719706 234.57231244 181.33187747 244.92954227 177.53919697 255.29493046 C177.12540791 256.4268079 176.71161884 257.55868534 176.28529072 258.7248621 C170.16347326 275.46976455 164.00119448 292.19936396 157.81071186 308.91898441 C152.16245302 324.17671066 146.5566747 339.44960371 140.97669697 354.73243046 C140.58194172 355.81357121 140.18718647 356.89471195 139.78046894 358.00861454 C136.96964361 365.70776947 134.16048303 373.40753138 131.35169697 381.10743046 C128.14450189 389.89951283 124.93657845 398.69132846 121.72669697 407.48243046 C121.33178059 408.5640546 120.9368642 409.64567875 120.52998066 410.76007938 C114.66220977 426.82690216 108.75066317 442.87708946 102.81116962 458.91751957 C97.07766745 474.40425864 91.39010684 489.90742642 85.72669697 505.41993046 C85.32416706 506.52245152 84.92163715 507.62497257 84.50690937 508.76090336 C82.52434209 514.19166286 80.54233608 519.62262698 78.56068134 525.05371952 C75.3687075 533.8017725 72.17458685 542.54903829 68.97669697 551.29493046 C68.68123981 552.10304173 68.38578266 552.91115299 68.08137226 553.74375248 C62.97150427 567.71593455 57.82726446 581.67535685 52.67908955 595.63346195 C44.57324356 617.61089719 36.50494284 639.60154669 28.47669697 661.60743046 C28.23236675 662.27711479 27.98803654 662.94679913 27.73630238 663.63677692 C25.12578762 670.7919989 22.51593627 677.94746271 19.90638447 685.10303593 C16.43312998 694.62654338 12.95769848 704.14925171 9.47669697 713.66993046 C9.18384815 714.47095188 8.89099934 715.2719733 8.58927631 716.0972681 C3.37877698 730.34432434 -1.88386543 744.57193134 -7.15147686 758.7979517 C-13.35009171 775.54237536 -19.47373575 792.31338114 -25.56016827 809.09888554 C-25.8803442 809.98164661 -26.20052013 810.86440769 -26.53039837 811.77391911 C-27.12171827 813.40474072 -27.7126084 815.03571827 -28.30295086 816.66689396 C-30.05213972 821.49300436 -31.83819784 826.30382047 -33.64830303 831.10743046 C-34.63830303 831.10743046 -35.62830303 831.10743046 -36.64830303 831.10743046 C-36.92915752 830.54048466 -37.21001202 829.97353886 -37.49937725 829.38941288 C-38.83832002 826.69007166 -40.1808259 823.99251556 -41.52330303 821.29493046 C-41.96416241 820.4048328 -42.40502178 819.51473515 -42.85924053 818.59766483 C-45.4844804 813.32895427 -48.17281912 808.09940951 -50.93300152 802.9004755 C-58.40528052 788.82015436 -65.46889041 774.53621442 -72.56480694 760.26404667 C-82.14390312 740.99857237 -82.14390312 740.99857237 -92.06834698 721.90943241 C-97.39953027 711.85334223 -102.41270958 701.63653354 -107.47105694 691.44141483 C-112.50787267 681.29707816 -117.61769673 671.20479525 -122.92381573 661.19849491 C-128.09538053 651.4185195 -132.9833308 641.49750337 -137.89830303 631.58692265 C-142.85108697 621.60783689 -147.88774901 611.68572343 -153.10264874 601.8408289 C-156.73023416 594.98353616 -160.20959748 588.06159611 -163.64830303 581.10743046 C-167.63291962 573.08701973 -171.65068935 565.08805698 -175.83580303 557.16993046 C-176.41660625 556.06403568 -176.41660625 556.06403568 -177.00914288 554.9357996 C-179.18860938 550.80296925 -181.42507746 546.70813563 -183.70689678 542.63086796 C-184.21776836 541.70008427 -184.72863995 540.76930058 -185.25499249 539.81031132 C-186.23493859 538.02548264 -187.23110049 536.2494173 -188.2466917 534.48462772 C-188.69117657 533.66792606 -189.13566143 532.8512244 -189.59361553 532.00977421 C-190.18940411 530.95004398 -190.18940411 530.95004398 -190.79722881 529.86890507 C-193.14370268 522.2553176 -191.49170666 515.21275257 -188.74595928 507.97461796 C-188.43698711 507.12028172 -188.12801495 506.26594547 -187.80967999 505.38572025 C-186.79118822 502.57910677 -185.75094568 499.78108381 -184.71080303 496.98243046 C-183.98763659 495.00031371 -183.26623447 493.01755248 -182.54649639 491.03418827 C-181.03168138 486.86272158 -179.50993668 482.69387398 -177.98424053 478.52637577 C-174.51654075 469.02781514 -171.16336414 459.48874474 -167.80211163 449.9521265 C-166.01574873 444.88641895 -164.2232514 439.82288833 -162.42955303 434.75977421 C-161.9279063 433.34375668 -161.9279063 433.34375668 -161.4161253 431.89913273 C-158.87392999 424.7297902 -156.30189081 417.57175884 -153.71080303 410.41993046 C-150.8468667 402.50645723 -148.06694005 394.56768161 -145.33580303 386.60743046 C-140.35139039 372.08740021 -135.2896095 357.59469499 -130.21080303 343.10743046 C-129.78328747 341.88793705 -129.3557719 340.66844364 -128.91530132 339.41199589 C-122.1275027 320.06255493 -115.23857846 300.75058583 -108.29970074 281.45481205 C-103.64060926 268.49607008 -99.01725725 255.53078429 -94.56505108 242.49927616 C-90.22748681 229.82258536 -85.78118055 217.1841433 -81.33580303 204.54493046 C-80.92129894 203.36626408 -80.50679485 202.18759769 -80.07973003 200.97321415 C-74.71917982 185.73873671 -69.30059058 170.52722677 -63.78767681 155.3472681 C-60.41027685 146.04401764 -57.10317117 136.72194788 -53.89830303 127.35743046 C-47.84497797 109.67200606 -41.57836594 92.06262234 -35.31724834 74.44989872 C-32.92063582 67.70391043 -30.53512315 60.9541127 -28.15842438 54.20109081 C-26.24170701 48.7552582 -24.32030885 43.31109171 -22.39585686 37.86798763 C-21.21981178 34.54084288 -20.04630176 31.21284981 -18.87861919 27.88276005 C-17.5724805 24.1580707 -16.25533156 20.43732719 -14.93736553 16.71680546 C-14.54745937 15.59925877 -14.15755322 14.48171207 -13.75583172 13.33030033 C-13.20687992 11.78863697 -13.20687992 11.78863697 -12.64683819 10.2158289 C-12.33171276 9.32136051 -12.01658733 8.42689213 -11.69191265 7.50531864 C-10.60355005 5.00460213 -9.46789618 3.1373662 -7.64830303 1.10743046 C-4.76407784 0.14602206 -2.99310964 -0.01230607 0 0 Z " fill="#00A0DD" transform="translate(1310.6483030319214,13.892569541931152)"/>
<path d="M0 0 C5.46143311 4.8112625 7.50941654 10.29733257 9.46875 17.0703125 C12.34822241 26.58137021 15.65156773 35.8797248 19.125 45.1875 C19.73665965 46.83665855 20.34806287 48.48591222 20.95922852 50.13525391 C25.67897641 62.85257586 30.46894145 75.54354578 35.28515625 88.22460938 C38.41880212 96.4760186 41.53726302 104.7327476 44.62890625 113 C45.13090797 114.34186874 45.13090797 114.34186874 45.64305115 115.71084595 C47.25637708 120.02433608 48.8677091 124.3385574 50.47631836 128.65380859 C53.13585979 135.7743071 55.82930687 142.87065801 58.6875 149.9140625 C61.08168548 155.84301278 63.2543248 161.82337679 65.35697937 167.86105347 C67.8124925 174.89812021 70.43444181 181.86690619 73.08761597 188.83145142 C73.97636334 191.16452099 74.86260441 193.49853053 75.74829102 195.83276367 C77.03433347 199.22193077 78.32113828 202.61080695 79.60839844 205.99951172 C83.10351774 215.20406406 86.58281363 224.41460499 90.0625 233.625 C90.42066803 234.57282349 90.77883606 235.52064697 91.14785767 236.49719238 C96.15979001 249.76166514 101.15148488 263.03357863 106.125 276.3125 C111.33266237 290.21649644 116.56272492 304.11184828 121.8125 318 C122.3355069 319.3836525 122.3355069 319.3836525 122.86907959 320.79525757 C124.3120564 324.61261121 125.75512703 328.42992937 127.19830322 332.24720764 C131.71900454 344.20516193 136.23551853 356.16469625 140.75 368.125 C141.17342682 369.24675629 141.59685364 370.36851257 142.03311157 371.52426147 C147.53949405 386.11383876 153.03021877 400.70916305 158.5 415.3125 C162.99852189 427.32166832 167.50777319 439.32666798 172.04342651 451.3218689 C172.92337094 453.6501159 173.80170291 455.97896672 174.67993164 458.30786133 C177.29894516 465.24277536 179.94644329 472.16311064 182.6875 479.05078125 C183.15502686 480.23430176 183.62255371 481.41782227 184.10424805 482.63720703 C184.95663251 484.78713262 185.81911482 486.93309974 186.69458008 489.07373047 C190.43576876 498.53149399 191.79312094 505.18465271 187.79917908 514.67988586 C185.98977726 518.73672599 184.04041223 522.70886637 182.02734375 526.66796875 C181.59297501 527.53150467 181.15860626 528.39504059 180.71107483 529.28474426 C179.3320753 532.02512846 177.94774783 534.76276972 176.5625 537.5 C171.07340023 548.36448193 165.6275258 559.24021682 160.41015625 570.23828125 C156.09877144 579.31714003 151.65933734 588.32768234 147.15625 597.3125 C146.83049547 597.96256327 146.50474094 598.61262653 146.16911507 599.28238869 C143.48614817 604.63438009 140.79793171 609.98373091 138.10955811 615.33300781 C135.76855272 619.9916353 133.42953808 624.65125423 131.09375 629.3125 C130.76921341 629.96005249 130.44467682 630.60760498 130.11030579 631.27478027 C125.44480636 640.59161315 120.88645989 649.95494784 116.41821289 659.36816406 C111.75118592 669.18959461 106.865672 678.89747438 101.96826172 688.60546875 C96.84640668 698.76722914 91.84918657 708.97909387 86.95823669 719.25405884 C81.30429231 731.11559957 75.49062344 742.89843723 69.6875 754.6875 C67.48950103 759.15296651 65.29270728 763.61902111 63.09765625 768.0859375 C62.56234283 769.17485291 62.02702942 770.26376831 61.47549438 771.38568115 C57.11153371 780.28044213 52.82050065 789.20930353 48.57862854 798.16293335 C46.11185507 803.34151705 43.55473785 808.38006384 40.625 813.3125 C39.635 812.9825 38.645 812.6525 37.625 812.3125 C36.54443359 810.08325195 36.54443359 810.08325195 35.5234375 807.05078125 C34.92644043 805.31731445 34.92644043 805.31731445 34.31738281 803.54882812 C33.99864197 802.59858765 33.99864197 802.59858765 33.67346191 801.62915039 C32.47845303 798.07293217 31.24008896 794.53172056 30.0078125 790.98828125 C29.73980835 790.21461212 29.4718042 789.44094299 29.19567871 788.64382935 C26.22287983 780.09154791 23.07430912 771.60593416 19.91882324 763.11972046 C11.49004917 740.45168045 3.19107658 717.73688782 -5.09277344 695.015625 C-5.78759236 693.10989735 -6.48242079 691.20417317 -7.17726898 689.29845619 C-7.63709155 688.03732304 -8.09689483 686.77618286 -8.55667877 685.51503563 C-12.484061 674.74342583 -16.42777494 663.97785628 -20.37686157 653.21418762 C-24.41575784 642.20498476 -28.44241185 631.19133857 -32.46502686 620.17617798 C-34.51517943 614.56255712 -36.5662826 608.94928354 -38.6171875 603.3359375 C-40.86525056 597.18274195 -43.11324919 591.02952302 -45.36035156 584.87597656 C-53.06475693 563.77884054 -60.8017043 542.69375754 -68.56250763 521.61730576 C-69.23527591 519.78999226 -69.90777162 517.96257842 -70.58026123 516.13516235 C-75.45301565 502.89596112 -80.34079794 489.66334361 -85.33883667 476.47080994 C-87.81089221 469.9177553 -90.12410555 463.31954286 -92.375 456.6875 C-96.51218162 444.59245624 -100.92602943 432.60814694 -105.375 420.625 C-111.29744265 404.67003559 -117.16131622 388.69602826 -122.9375 372.6875 C-123.28701721 371.71907166 -123.63653442 370.75064331 -123.99664307 369.75286865 C-125.40463855 365.85151231 -126.81252413 361.95011637 -128.22003174 358.04858398 C-139.39070221 327.09326067 -150.66461526 296.17443523 -162.07182312 265.30549622 C-163.69663827 260.90803308 -165.3203343 256.5101574 -166.94373035 252.11217022 C-168.54831323 247.76573718 -170.15609564 243.42049556 -171.7644043 239.07543945 C-176.11752298 227.29502659 -180.38973384 215.49549462 -184.48388672 203.62252808 C-187.68737949 194.35344697 -191.06667135 185.15241489 -194.46951294 175.95498657 C-201.71140688 156.37588988 -208.84689229 136.75931812 -215.9375 117.125 C-223.02557063 97.50158867 -230.18954129 77.90860188 -237.44946289 58.34814453 C-240.76369313 49.41315056 -244.05430967 40.47084784 -247.28125 31.50390625 C-247.58925537 30.64810974 -247.89726074 29.79231323 -248.21459961 28.9105835 C-249.65862861 24.89419631 -251.09789883 20.87616681 -252.53125 16.85595703 C-253.031241 15.45995772 -253.53124046 14.06396143 -254.03125 12.66796875 C-254.67803711 10.85268677 -254.67803711 10.85268677 -255.33789062 9.00073242 C-256.12026772 6.43216603 -256.12026772 6.43216603 -257.375 5.3125 C-257.41592937 2.97952567 -257.41741723 0.64544775 -257.375 -1.6875 C-255.58898015 -1.68611731 -255.58898015 -1.68611731 -253.76687908 -1.68470669 C-225.47400469 -1.66302782 -197.18113052 -1.64654897 -168.88824965 -1.63643467 C-165.40246915 -1.63518403 -161.91668867 -1.6338897 -158.4309082 -1.63256836 C-157.73698038 -1.63230605 -157.04305255 -1.63204374 -156.32809661 -1.63177348 C-145.1064019 -1.62742751 -133.88471235 -1.61954586 -122.66302069 -1.6103472 C-111.14023117 -1.60098082 -99.61744525 -1.59551287 -88.094652 -1.59341151 C-81.62598975 -1.59210914 -75.15733916 -1.58905322 -68.68868065 -1.58176994 C-62.59602305 -1.57496581 -56.50338187 -1.57289198 -50.41072083 -1.57439232 C-48.17872338 -1.57411797 -45.94672537 -1.57213897 -43.71473122 -1.56829453 C-40.65759448 -1.56328859 -37.60051902 -1.564527 -34.54338074 -1.56724548 C-33.66883104 -1.56433264 -32.79428134 -1.5614198 -31.89323014 -1.55841869 C-26.53035986 -1.57122891 -21.27495082 -1.91411699 -15.94256669 -2.49128824 C-10.18321611 -2.93141402 -5.19322846 -2.59661423 0 0 Z " fill="#00A0DD" transform="translate(257.375,31.6875)"/>
<path d="M0 0 C2.475 0.495 2.475 0.495 5 1 C5.33 2.65 5.66 4.3 6 6 C5.7525 5.38125 5.505 4.7625 5.25 4.125 C3.79371361 1.64931313 2.62187494 1.04874998 0 0 Z " fill="#FFFFFF" transform="translate(1575,0)"/>
<path d="M0 0 C0.33 0 0.66 0 1 0 C1 1.65 1 3.3 1 5 C-0.65 5.33 -2.3 5.66 -4 6 C-2.69593116 3.98079663 -1.36176581 1.98075027 0 0 Z " fill="#FFFFFF" transform="translate(1580,1192)"/>
<path d="M0 0 C1.65 1.65 3.3 3.3 5 5 C3.35 4.67 1.7 4.34 0 4 C0 2.68 0 1.36 0 0 Z " fill="#FFFFFF" transform="translate(0,1193)"/>
<path d="" fill="#FFFFFF" transform="translate(0,0)"/>
</svg>
